<svg t="1670084563050" class="icon" viewBox="0 0 1024 1024" version="1.1" xmlns="http://www.w3.org/2000/svg" p-id="2701" width="20" height="20">
    <path d="M288.937507 904.227247c-24.410828 0-63.650663-0.342208-98.327726-13.916453-45.969923-18.022948-70.266682-54.52512-70.266682-105.514091V512.627381H72.319929c-7.186365 0-13.574245-4.448702-16.08377-11.17879-2.509524-6.730088-0.456277-14.258661 5.019049-18.935502l433.007018-367.531247c6.501949-5.475326 15.9697-5.361257 22.35758 0.228139l418.976496 367.531247c5.361257 4.676841 7.186365 12.205414 4.67684 18.935501-2.509524 6.616019-8.897404 11.064721-15.9697 11.064721h-50.190487c1.825109 75.399799 4.448702 220.039657-1.4829 279.355687-2.965801 30.228361-8.783335 61.483346-43.460399 82.814303-33.194163 20.418403-89.430322 29.543946-182.168653 29.543946h-82.472096c-9.467751 0-17.110393-7.642642-17.110393-17.110393V732.667038h-98.213657v154.449816c0 4.562772-1.825109 8.897404-5.019049 12.091345-3.19394 3.19394-7.528573 5.019049-12.091344 5.019048H288.937507z m-169.963239-425.820652h18.479224c9.467751 0 17.110393 7.642642 17.110393 17.110393v289.393784c0 37.186588 15.399354 60.570792 48.479448 73.574691 29.543946 11.635067 66.046118 11.635067 87.719283 11.520998h124.107385V728.104266c0-16.311908 13.232037-29.543946 29.543946-29.543945H552.095355c16.311908 0 29.543946 13.232037 29.543945 29.543945v142.016264h65.361703c83.726858 0 137.453492-7.98485 164.259775-24.410827 19.733987-12.091345 24.524897-28.061045 27.376629-57.034645 6.159742-62.395901 2.623594-225.400913 0.798485-292.587724-0.114069-4.562772 1.59697-9.125543 4.79091-12.433552s7.642642-5.133118 12.205414-5.133118h22.35758L505.212877 150.57146 118.974268 478.406595z" p-id="2702" fill="#929292"></path>
</svg>